<svg width="70" height="70" viewBox="0 0 70 70" fill="none" xmlns="http://www.w3.org/2000/svg">
<path d="M34.4945 66.0045C26.0272 66.0045 17.5575 66.0094 9.09016 66.0045C5.98515 66.0045 3.60465 64.0109 3.08222 61.0069C2.49572 57.6382 5.12265 54.3731 8.55294 54.2006C8.75748 54.1907 8.96201 54.1882 9.16902 54.1882C26.0642 54.1882 42.9618 54.1882 59.857 54.1882C62.7033 54.1882 65.0123 55.8467 65.759 58.4046C66.8704 62.2194 64.0882 65.9749 60.0887 65.9946C54.3271 66.0218 48.5656 66.002 42.8041 66.002C40.0367 66.002 37.2669 66.002 34.4995 66.002L34.4945 66.0045ZM11.8551 60.1272C11.8551 59.7797 11.8748 59.4298 11.8502 59.0848C11.8083 58.5106 11.377 58.1188 10.8447 58.136C10.3346 58.1533 9.92802 58.5328 9.90584 59.0848C9.87873 59.76 9.87873 60.4352 9.90584 61.1104C9.92802 61.66 10.3371 62.0419 10.8472 62.0592C11.377 62.0764 11.8083 61.6821 11.8502 61.1104C11.8748 60.7851 11.8551 60.4549 11.8551 60.1296V60.1272ZM19.7285 60.0877C19.7285 59.7403 19.7531 59.3903 19.7236 59.0453C19.6768 58.5032 19.2554 58.1311 18.7452 58.136C18.2327 58.141 17.8088 58.5155 17.7842 59.0626C17.7521 59.7575 17.7521 60.4549 17.7842 61.1499C17.8113 61.692 18.2475 62.0641 18.76 62.0616C19.2701 62.0567 19.6792 61.6797 19.7236 61.1351C19.7507 60.7901 19.7285 60.4401 19.7285 60.0927V60.0877ZM27.6044 60.0409C27.6044 59.7132 27.6266 59.3854 27.5994 59.0601C27.5526 58.5131 27.146 58.1385 26.6334 58.136C26.1209 58.1336 25.6872 58.5032 25.66 59.0478C25.6255 59.7427 25.628 60.4401 25.66 61.1351C25.6847 61.6797 26.111 62.0567 26.6211 62.0616C27.1312 62.0666 27.5526 61.692 27.597 61.1499C27.629 60.7851 27.6019 60.413 27.6044 60.0458V60.0409ZM35.4802 60.1321C35.4802 59.7846 35.5 59.4347 35.4753 59.0897C35.4359 58.5131 35.012 58.1212 34.4773 58.1336C33.9672 58.1459 33.5556 58.5254 33.531 59.0749C33.5014 59.7501 33.5014 60.4253 33.531 61.1006C33.5556 61.6772 33.9918 62.0715 34.5266 62.0567C35.0342 62.0444 35.4334 61.6624 35.4753 61.1154C35.5 60.7901 35.4802 60.4598 35.4802 60.1346V60.1321ZM43.3561 60.0754C43.3561 59.7477 43.3758 59.4199 43.3512 59.0946C43.3093 58.5155 42.8904 58.1237 42.3581 58.136C41.848 58.1459 41.4315 58.5254 41.4069 59.0725C41.3773 59.7452 41.3773 60.4229 41.4069 61.0981C41.429 61.6772 41.8652 62.069 42.3975 62.0592C42.9052 62.0493 43.3093 61.6674 43.3512 61.1203C43.3783 60.7753 43.3561 60.4254 43.3561 60.0779V60.0754ZM51.2345 60.142C51.2345 59.8142 51.2468 59.4865 51.232 59.1587C51.2024 58.5352 50.7958 58.1237 50.2389 58.1336C49.7041 58.1434 49.3 58.5402 49.2803 59.1267C49.2581 59.7797 49.2556 60.4377 49.2803 61.0907C49.3049 61.6698 49.7337 62.0641 50.266 62.0567C50.7958 62.0493 51.195 61.6476 51.2295 61.0611C51.2468 60.7556 51.232 60.4475 51.2345 60.1395V60.142ZM57.1488 60.0877H57.1512C57.1512 60.4352 57.129 60.7851 57.1562 61.1301C57.2005 61.6747 57.6071 62.0518 58.1197 62.0567C58.6298 62.0616 59.0684 61.6871 59.0955 61.1474C59.13 60.4525 59.13 59.7551 59.0955 59.0601C59.0709 58.5131 58.647 58.1385 58.1345 58.1336C57.5997 58.1286 57.1882 58.5205 57.1512 59.1045C57.129 59.4298 57.1463 59.76 57.1463 60.0853L57.1488 60.0877Z" fill="#ED4D1A"/>
<path d="M33.526 8.98573C35.0736 7.51208 36.9317 6.77526 39.0978 6.9724C40.7932 7.12519 42.2471 7.83737 43.4325 9.06212C45.7662 11.4722 45.9978 15.2598 43.9845 17.973C41.9835 20.6714 38.2722 21.5265 35.2831 19.9765C31.9513 18.249 30.8868 14.9493 32.2889 10.5826C31.3599 9.90737 30.4259 9.21491 29.4698 8.55201C29.3614 8.47808 29.142 8.53969 28.9819 8.56926C28.4249 8.6703 27.868 8.77133 27.3185 8.90441C27.1115 8.95369 26.8429 9.04241 26.7418 9.20012C22.8211 15.3263 18.9152 21.4624 15.0167 27.601C14.9132 27.7636 14.8294 27.9755 14.827 28.1653C14.8147 30.4201 14.8196 32.675 14.8196 35.0259C16.1602 34.2817 17.5697 34.5207 18.9448 34.5059C21.4461 34.4837 23.9473 34.4961 26.4486 34.501C28.8734 34.5059 30.559 36.1792 30.5664 38.5892C30.5738 41.1324 30.5664 43.6731 30.5664 46.2655H12.8432V45.5755C12.8432 39.7524 12.8334 33.9293 12.8605 28.1062C12.8605 27.6281 13.0157 27.0859 13.272 26.6818C17.1459 20.5506 21.0444 14.4343 24.9503 8.32283C25.1819 7.96305 25.2485 7.70676 25.0144 7.29522C24.3736 6.1789 24.6004 4.81615 25.4998 3.89697C26.3993 2.97779 27.7399 2.74121 28.8981 3.29814C30.0341 3.84275 30.734 5.08968 30.5294 6.33415C30.4703 6.70133 30.5442 6.88615 30.8326 7.08576C31.6901 7.68212 32.528 8.30805 33.3757 8.92166C33.4077 8.94383 33.4472 8.95369 33.5285 8.98573H33.526ZM18.6269 36.4157C18.4076 36.5981 18.0207 36.7632 17.932 37.0269C17.8285 37.3423 17.9763 37.7415 18.0232 38.1038C18.0527 38.333 18.1957 38.6016 18.1217 38.7815C17.6634 39.8855 17.6683 40.9599 18.1316 42.059C18.2031 42.2265 18.1439 42.5149 18.038 42.6775C17.6979 43.2024 17.6856 43.7027 18.0922 44.0624C18.5234 44.4444 18.999 44.4469 19.4204 44.0624C19.6644 43.8382 19.8467 43.8554 20.1203 43.9811C21.1627 44.4617 22.2223 44.469 23.2672 43.9934C23.558 43.8604 23.7526 43.8382 24.0213 44.0772C24.4574 44.4641 24.9799 44.4222 25.3495 44.06C25.7191 43.6977 25.7758 43.1605 25.3914 42.7342C25.1302 42.4434 25.1696 42.2364 25.3101 41.9259C25.761 40.9229 25.7635 39.8978 25.315 38.8948C25.1795 38.5892 25.1228 38.3798 25.3865 38.0841C25.7734 37.6528 25.7118 37.1255 25.3372 36.7607C24.9626 36.3985 24.45 36.3566 24.0114 36.7484C23.7354 36.9973 23.5358 36.9406 23.2549 36.815C22.3381 36.4034 21.3919 36.3418 20.4505 36.709C20.002 36.884 19.6028 37.0466 19.206 36.608C19.1124 36.5045 18.9079 36.502 18.6318 36.4133L18.6269 36.4157ZM38.4472 10.8832C36.843 10.8734 35.4975 12.2041 35.4901 13.8059C35.4851 15.4225 36.7912 16.7581 38.3979 16.7778C40.012 16.7975 41.36 15.4915 41.3846 13.8847C41.4118 12.246 40.086 10.8931 38.4447 10.8832H38.4472Z" fill="#ED4D1A"/>
<path d="M30.246 17.2781C32.1534 21.078 35.1771 22.8326 39.4403 22.6847C37.1313 27.6256 34.8444 32.5148 32.4935 37.5419C32.3801 37.1427 32.316 36.884 32.2347 36.6302C31.4585 34.2176 29.2381 32.5715 26.6753 32.5444C24.2775 32.5197 21.8798 32.532 19.4845 32.5271C19.4648 32.5271 19.4475 32.5173 19.3169 32.4803C22.964 27.4088 26.589 22.3693 30.2485 17.2805L30.246 17.2781ZM29.0977 31.014C29.2258 30.9327 29.5536 30.8267 29.7039 30.6025C30.1696 29.91 30.596 29.188 30.9853 28.4487C31.2293 27.983 31.0075 27.3989 30.5541 27.1919C30.0735 26.9726 29.6078 27.0391 29.3096 27.5C28.8709 28.185 28.4471 28.8873 28.0799 29.6143C27.7448 30.2747 28.213 31.0042 29.0977 31.014ZM31.6901 26.5956C31.8207 26.5093 32.1238 26.396 32.2988 26.1766C32.5871 25.8119 32.8163 25.3954 33.0208 24.9765C33.2549 24.496 33.0726 23.9563 32.6191 23.7173C32.1337 23.461 31.6901 23.5596 31.3747 23.9933C31.1011 24.3703 30.8572 24.7769 30.66 25.1983C30.352 25.8538 30.8276 26.598 31.6901 26.5956Z" fill="#ED4D1A"/>
<path d="M49.6573 34.1535C46.6286 30.9746 43.6518 27.8474 40.6626 24.7104C41.0643 23.8503 41.4462 23.0149 41.8479 22.1869C41.912 22.0538 42.0475 21.9208 42.1831 21.8567C44.497 20.733 46.0495 18.9439 46.8775 16.5141C46.8948 16.4624 46.9441 16.4205 47.0081 16.3342C49.8174 20.7379 52.6119 25.1219 55.4631 29.5921C52.6859 30.0406 50.7465 31.5118 49.6573 34.156V34.1535Z" fill="#ED4D1A"/>
<path d="M60.5125 38.8133C61.1852 39.3727 61.821 39.9198 62.4765 40.4422C62.8757 40.7601 63.0679 41.1347 63.0581 41.6571C63.0359 42.803 63.0556 43.9513 63.0507 45.0997C63.0482 45.8686 62.6712 46.3195 62.0576 46.3146C61.4464 46.3097 61.0842 45.8587 61.0817 45.0825C61.0768 44.1411 61.0891 43.1973 61.0719 42.2559C61.0694 42.0711 61.0152 41.8296 60.8895 41.7162C60.3597 41.2357 59.7978 40.7946 59.2828 40.3707C58.5583 40.7182 57.8855 41.041 57.1463 41.3959C57.1463 41.9553 57.1536 42.5886 57.1463 43.2219C57.1339 43.9045 56.7618 44.3308 56.1852 44.3456C55.5864 44.3604 55.1921 43.9168 55.1773 43.2071C55.1699 42.8991 55.1773 42.5935 55.1773 42.2855C55.1773 41.9799 55.1773 41.6719 55.1773 41.3959C54.47 41.0558 53.7973 40.733 53.0383 40.3683C52.5454 40.7798 51.9688 41.2357 51.4291 41.7286C51.3059 41.8419 51.2566 42.0834 51.2541 42.2682C51.2369 43.2318 51.2541 44.1928 51.2443 45.1564C51.2369 45.8735 50.85 46.3171 50.2536 46.3121C49.6597 46.3072 49.2802 45.8661 49.2753 45.1441C49.2679 43.9563 49.2359 42.766 49.295 41.5807C49.3123 41.2209 49.5242 40.7921 49.7854 40.5358C50.4113 39.9222 51.1186 39.3924 51.8332 38.7985C51.1901 37.5097 51.0422 36.1814 51.5326 34.8187C51.8973 33.8034 52.5331 32.9951 53.4252 32.3889C55.1896 31.1937 57.5356 31.2849 59.2187 32.6107C61.0448 34.0498 61.5031 36.1864 60.5223 38.8133H60.5125Z" fill="#ED4D1A"/>
<path d="M7.95901 52.1997C7.8703 50.1297 9.63719 48.316 11.7934 48.2889C13.8413 48.2643 15.8916 48.2815 17.9394 48.2815C22.4688 48.2815 26.9957 48.2716 31.525 48.2864C33.738 48.2938 35.5024 50.0533 35.4531 52.1973H7.95901V52.1997Z" fill="#ED4D1A"/>
<path d="M55.8895 26.6152C53.7899 23.3229 51.6928 20.0306 49.5957 16.7432C50.7465 15.8635 52.5356 16.0582 53.4055 17.2977C54.6746 19.1065 55.8673 20.9769 56.9787 22.8867C57.7303 24.178 57.2005 25.7798 55.8895 26.6152Z" fill="#ED4D1A"/>
<path d="M21.7344 42.3793C20.6402 42.3941 19.7358 41.5045 19.7358 40.4103C19.7358 39.3408 20.6057 38.4561 21.6752 38.4413C22.7718 38.4266 23.6738 39.3162 23.6738 40.4103C23.6738 41.4798 22.8039 42.3645 21.7344 42.3793Z" fill="#ED4D1A"/>
<path d="M38.462 14.8139C37.9371 14.8287 37.4812 14.4048 37.4566 13.8725C37.4295 13.3254 37.8903 12.8498 38.4423 12.8523C38.9697 12.8523 39.4132 13.2934 39.4182 13.8208C39.4231 14.3457 38.9894 14.7966 38.462 14.8114V14.8139Z" fill="#ED4D1A"/>
</svg>
